<svg xmlns="http://www.w3.org/2000/svg" viewBox="0 0 90 72">
  <path fill="#1f6447" d="M46.7,9.4c-1.1,0-2.2-0.9-2.2-2s1-2,2.2-2 c1.2,0,2.2,0.9,2.2,2S47.9,9.4,46.7,9.4z M62.9,17.3c-1.2,0-2.2-0.9-2.2-2s1-2,2.2-2c1.2,0,2.2,0.9,2.2,2S64.1,17.3,62.9,17.3z M30.5,17.3c-1.2,0-2.2-0.9-2.2-2s1-2,2.2-2c1.2,0,2.2,0.9,2.2,2S31.7,17.3,30.5,17.3z M78.3,67.9H15.1c-2.8,0-5.1-2.3-5.1-5.1V50.2c-1.7,0-3.1-1.4-3.1-3.1V35.3c0-1.7,1.4-3.1,3.1-3.1V19.8c0-2.8,2.3-5.1,5.1-5.1h0.9c1.3-2.2,4.1-2.9,6.2-1.6c0.6,0.4,1.2,0.9,1.6,1.6h13.5c0.4-0.7,1-1.3,1.7-1.7c-0.5-2.5,1.1-4.9,3.6-5.4c0.3-0.1,0.6-0.1,0.9-0.1c-0.5-2.5,1.1-4.9,3.6-5.4c2.5-0.5,4.9,1.1,5.4,3.6c0.1,0.3,0.1,0.6,0.1,0.9c3.5-2.1,8-0.9,10,2.6c0.1,0.1,0.1,0.3,0.2,0.4h12.1c1.3-2.2,4.1-2.9,6.2-1.6c0.6,0.4,1.2,0.9,1.6,1.6h0.9c2.8,0,5.1,2.3,5.1,5.1v12.4c1.7,0,3.1,1.4,3.1,3.1v11.8c0,1.7-1.4,3.1-3.1,3.1v12.6C83.4,65.6,81.1,67.9,78.3,67.9z"/>
</svg>